<svg height="32" viewBox="0 0 108 32" width="108" xmlns="http://www.w3.org/2000/svg" xmlns:xlink="http://www.w3.org/1999/xlink"><mask id="a" fill="#fff"><path d="m0 0h107.667v31.388h-107.667z" fill="#fff" fill-rule="evenodd"/></mask><path d="m21.3556 28.9313h-.227v-.287h.18c.096 0 .228.01.228.132 0 .132-.067.155-.181.155zm.451-.128c0-.272-.18-.358-.488-.358h-.443v1.188h.253v-.5h.121l.274.5h.303l-.307-.521c.161-.014.287-.092.287-.309zm-.494 1.086v-.003c-.437.003-.791-.338-.791-.848 0-.507.354-.845.791-.845.427 0 .792.338.792.845 0 .51-.365.851-.792.851zm0-1.954c-.587 0-1.108.406-1.108 1.103 0 .698.521 1.106 1.108 1.106.583 0 1.106-.408 1.106-1.106 0-.697-.523-1.103-1.106-1.103zm-1.142-10.441c-3.063.956-6.917.913-9.821-.365-.527-.256-1.189-.65-1.364-1.262-.133-1.121 1.072-1.743 1.891-2.154.479-.211.97-.443 1.501-.472.496.364 1.014.656 1.526.984-.993.264-2.183.489-2.641 1.577.079.823 1.014 1.086 1.662 1.29 2.343.622 4.874.541 7.122-.277.422-.25 1.093-.548 1.034-1.16-.07-.656-.822-.947-1.349-1.154-.318.045-.626.117-.927.213-.159-.454-.298-.913-.489-1.35.995.262 1.986.533 3.017.714v.022c-.212.024-.449.098-.652.176v.037c.585.293 1.394.774 1.402 1.539-.138.929-1.154 1.351-1.912 1.642zm-5.378 5.852c.125-1.684.147-3.24.234-4.916.591.056 1.101.033 1.642.014l.037.224.211 4.693c-.708.101-1.459.043-2.124-.015zm.758-15.251.293-.931h.036c.599 1.713 1.218 3.419 1.862 5.113l-1.285.024-.028.151.19 4.59v.072c-.476.08-1.057.06-1.526.015l-.037-.052.212-4.728v-.036c-.359-.036-.81 0-1.174-.036zm4.989-.094c-.037-.022-.147-.087-.147-.087l-.063-.058c-.748-.722-1.673-1.51-2.674-2.276-.48-.405-1.616-1.232-2.411-.615l-.022.017c-1.067.763-1.981 1.479-2.876 2.251-.059.045-.137.125-.137.125l-.08.08c-2.596 2.315-4.619 4.41-6.186 6.405.006-.006-.118.154-.118.154-.423.546-.81 1.064-.971 1.622.006.276.048.494.149.638 1.352 2.014 3.194 4.105 5.487 6.231-.012-.01.953.865.953.865 1.421 1.301 2.765 2.527 4.311 3.335.33.153.85-.126 1.223-.389 2.86-2.015 5.404-4.618 7.303-6.661.002-.002.698-.83.698-.83.828-.97 1.613-1.882 2.037-2.935.008-.036.011-.069.011-.109 0-.182-.098-.428-.338-.798-1.657-2.369-3.733-4.718-6.149-6.965zm7.117 8.128c-.598 1.487-1.813 2.679-2.869 3.977-2.29 2.465-4.707 4.851-7.413 6.758-.548.385-1.284.742-1.94.437-1.993-1.043-3.67-2.752-5.416-4.306-2.019-1.874-4.048-4.058-5.581-6.341-.226-.32-.292-.715-.285-1.138.199-.787.739-1.438 1.248-2.101 1.811-2.304 4.029-4.494 6.269-6.492.051-.053.144-.162.226-.212.963-.833 1.918-1.571 2.925-2.291 1.054-.818 2.37-.139 3.255.612.927.708 1.888 1.509 2.734 2.327l.154.088c2.343 2.174 4.519 4.589 6.305 7.143.292.446.548.948.388 1.539zm3.531-1.4-.089-.015c-2.692-1.83-5.201-3.904-7.564-6.253l-2.613-2.729c-1.06-1.176-2.086-2.473-3.066-3.712l-1.187-1.687c-.147-.088-.329-.234-.49-.277-.349-.153-.728.029-1.014.247l-2.153 2.803c-3.45 4.277-7.537 8.266-11.994 11.323-.35.279-.876.548-.984.999-.118.409.094.746.35 1.002 3.566 2.457 6.982 5.375 10.015 8.704.541.568.98 1.129 1.506 1.663.889 1.182 1.933 2.371 2.75 3.64.254.269.299.707.701.839.313.11.699.184 1 0l.296-.301c3.695-5.23 8.378-9.928 13.609-13.722.527-.468 1.527-.641 1.54-1.51-.035-.401-.271-.794-.613-1.014zm76.48-5.967v-4.611h-18.115v23.78h18.115v-4.612h-11.527v-5.038h10.606v-4.612h-10.606v-4.907zm-39.916 19.169h18.114v-4.612h-11.527v-5.038h10.605v-4.612h-10.605v-4.907h11.527v-4.611h-18.114zm-21.803 0h18.115v-4.612h-11.53v-5.038h10.606v-4.612h-10.606v-4.907h11.53v-4.611h-18.115zm-10.044 0h6.588v-23.779h-6.588z" fill="#fff" fill-rule="evenodd" mask="url(#a)"/></svg>